<?xml version="1.0" encoding="utf-8"?>
<!-- Generator: Adobe Illustrator 21.0.0, SVG Export Plug-In . SVG Version: 6.00 Build 0)  -->
<svg version="1.1" id="Layer_1" xmlns="http://www.w3.org/2000/svg" xmlns:xlink="http://www.w3.org/1999/xlink" x="0px" y="0px"
	 viewBox="0 0 100 100" style="enable-background:new 0 0 100 100;" xml:space="preserve">
<style type="text/css">
	.st0{fill: none;}
	.st1{fill: #00d1b2;}
	.st1:hover,
	.st1:focus {
		opacity: 0.5;
		cursor: pointer;
	}
</style>
<path class="st1" d="M50,0C22.4,0,0,22.4,0,50s22.4,50,50,50s50-22.4,50-50S77.6,0,50,0z M50,15c8.3,0,15,6.7,15,15s-6.7,15-15,15s-15-6.7-15-15
	S41.7,15,50,15z M50,86c-12.5,0-23.5-6.4-30-16.1c0.2-9.9,20-15.4,30-15.4c9.9,0,29.8,5.5,30,15.4C73.5,79.6,62.5,86,50,86z"/>
<path class="st0" d="M-1.5-1.5h102.7v102.7H-1.5V-1.5z"/>
</svg>
